# xmcd
#
# Track frame offsets:
#	150
#	30262
#	57305
#	71347
#	94927
#	112357
#	139375
#	172622
#	191965
#	219167
#	236205
#
# Disc length: 3524 seconds
#
# Revision: 1
# Processed by: cddbd v1.5.1PL0 Copyright (c) Steve Scherf et al.
# Submitted via: EasyCDDAExtractor 7.0.5.4
#
DISCID=9e0dc20b
DTITLE=Gunnel Mauritzson - Åter
DYEAR=2002
DGENRE=National Folk
TTITLE0=Solhalling
TTITLE1=Ditt ansikte
TTITLE2=Hemmet
TTITLE3=Svart fjäril
TTITLE4=Sorgfågel
TTITLE5=Jag flzr till dig
TTITLE6=Två klots hastighet
TTITLE7=Tänkar du i världen
TTITLE8=Vita blomma
TTITLE9=Noras hemlighet
TTITLE10=Åter
EXTD=
EXTT0=
EXTT1=
EXTT2=
EXTT3=
EXTT4=
EXTT5=
EXTT6=
EXTT7=
EXTT8=
EXTT9=
EXTT10=
PLAYORDER=
